<?xml version="1.0" encoding="iso-8859-1"?>
<!-- Generator: Adobe Illustrator 19.0.0, SVG Export Plug-In . SVG Version: 6.00 Build 0)  -->
<svg version="1.1" id="Capa_1" xmlns="http://www.w3.org/2000/svg" xmlns:xlink="http://www.w3.org/1999/xlink" x="0px" y="0px"
	 viewBox="0 0 479.451 479.451" style="enable-background:new 0 0 479.451 479.451;" xml:space="preserve">
<g>
	<g>
		<path d="M418.171,165.107c-2.041-3.919-6.872-5.441-10.791-3.401c0,0-0.001,0.001-0.001,0.001l-36.64,19.048h-0.056
			l-129.816,67.552l44-139.384c0-0.056,0.064-0.096,0.08-0.16l12.4-39.52c1.315-4.212-1.03-8.694-5.24-10.016
			C179.078,22.786,57.907,84.872,21.465,197.902s25.645,234.2,138.674,270.642c0.865,0.279,1.731,0.552,2.6,0.82
			c21.034,6.666,42.966,10.068,65.032,10.088c93.709-0.263,176.503-61.065,204.8-150.4
			C449.891,274.677,444.705,215.63,418.171,165.107z M219.803,261.915c-1.323,4.215,1.021,8.706,5.236,10.029
			c2.019,0.634,4.206,0.442,6.084-0.533l139.464-72.56c0.616,1.336,1.272,2.656,1.848,4c0.8,1.936,1.6,3.88,2.4,5.848
			c1.032,2.696,1.96,5.416,2.832,8.152c0.664,2.08,1.312,4.168,1.888,6.264c0.728,2.68,1.352,5.384,1.936,8.096
			c0.472,2.176,0.952,4.344,1.328,6.528c0.464,2.712,0.8,5.432,1.12,8.16c0.264,2.2,0.552,4.392,0.72,6.6
			c0.208,2.792,0.256,5.6,0.312,8.392c0.048,2.152,0.152,4.296,0.104,6.448c-0.056,2.968-0.312,5.936-0.536,8.904
			c-0.16,1.984-0.232,4-0.456,5.952c-0.4,3.392-1.016,6.768-1.6,10.144c-0.28,1.552-0.456,3.112-0.8,4.656
			c-1.056,4.936-2.328,9.856-3.872,14.736c-12.489,39.933-40.431,73.212-77.6,92.424c-3.28,1.712-6.648,3.144-10.008,4.608
			c-79.727,34.768-172.544-1.678-207.312-81.405c-30.336-69.564-6.746-150.87,56.112-193.395c5.049-3.45,10.292-6.608,15.704-9.456
			c4.24-2.208,8.568-4.152,12.928-5.952c0.76-0.32,1.52-0.64,2.288-0.944c4.267-1.669,8.555-3.155,12.864-4.456
			c0.736-0.224,1.488-0.408,2.232-0.616c4.224-1.192,8.472-2.232,12.76-3.056c0.336-0.064,0.672-0.152,1.016-0.216
			c4.48-0.8,9-1.424,13.536-1.864l2.64-0.24c4.48-0.352,8.976-0.544,13.48-0.504c0.696,0,1.384,0.048,2.072,0.064
			c4.04,0.08,8.088,0.336,12.128,0.736c0.928,0.088,1.848,0.16,2.776,0.264c4.464,0.533,8.923,1.248,13.376,2.144
			c0.936,0.192,1.872,0.432,2.808,0.64c1.848,0.416,3.688,0.968,5.536,1.448L219.803,261.915z M417.267,324.211
			C384.161,429.053,272.332,487.206,167.491,454.1c-50.31-15.886-92.257-51.094-116.624-97.889
			c-50.912-97.327-13.285-217.497,84.041-268.409c44.536-23.297,96.242-28.867,144.719-15.591l-7.616,24.296
			c-1.648-0.44-3.312-0.696-4.968-1.08c-2.4-0.576-4.856-1.12-7.296-1.6c-2.984-0.568-5.96-1.024-8.952-1.432
			c-2.52-0.352-5.032-0.696-7.552-0.928c-2.968-0.28-5.92-0.416-8.88-0.544c-2.536-0.104-5.064-0.224-7.592-0.224
			c-2.984,0-5.952,0.176-8.928,0.344c-2.496,0.136-4.976,0.224-7.456,0.472c-3.04,0.296-6.064,0.8-9.08,1.248
			c-2.4,0.36-4.8,0.656-7.152,1.12c-3.136,0.624-6.24,1.448-9.352,2.24c-2.216,0.568-4.448,1.04-6.648,1.696
			c-3.32,0.992-6.592,2.216-9.872,3.416c-1.936,0.704-3.896,1.288-5.808,2.072c-4,1.6-7.88,3.488-11.768,5.408
			c-1.128,0.56-2.296,0.992-3.416,1.6c-4.648,2.4-9.104,5.08-13.464,7.856C58.24,166.47,31.96,264.44,73.227,344.083
			c0.064,0.128,0.112,0.256,0.176,0.376c0.16,0.304,0.36,0.576,0.512,0.88c21.208,40.514,57.647,70.939,101.296,84.576
			c0.24,0.08,0.48,0.12,0.712,0.192c4.736,1.472,9.504,2.696,14.296,3.752c1.728,0.384,3.464,0.68,5.2,1.016
			c3.4,0.64,6.808,1.2,10.224,1.6c1.904,0.24,3.8,0.472,5.704,0.656c3.56,0.336,7.12,0.536,10.68,0.648
			c1.6,0.056,3.2,0.176,4.736,0.184c0.288,0,0.576,0,0.864,0c4.368,0,8.728-0.224,13.072-0.56c1.32-0.104,2.632-0.224,3.944-0.36
			c4.704-0.464,9.392-1.072,14.04-1.928c0.8-0.144,1.6-0.344,2.4-0.504c4.224-0.8,8.416-1.856,12.584-3.016
			c1.096-0.304,2.192-0.584,3.28-0.912c4.608-1.376,9.16-2.968,13.672-4.736c1.008-0.4,2-0.8,3-1.232
			c4.72-1.96,9.4-4.056,13.984-6.4c40.909-21.156,71.659-57.794,85.4-101.752c0.24-0.752,0.376-1.52,0.6-2.272
			c1.4-4.632,2.664-9.272,3.664-13.952c0.392-1.84,0.608-3.688,0.936-5.536c0.656-3.632,1.328-7.256,1.752-10.904
			c0.24-2.08,0.304-4.16,0.472-6.248c0.264-3.416,0.552-6.824,0.616-10.232c0.048-2.208-0.072-4.408-0.112-6.616
			c-0.064-3.272-0.12-6.544-0.376-9.808c-0.176-2.296-0.496-4.576-0.76-6.864c-0.376-3.144-0.752-6.272-1.288-9.392
			c-0.416-2.4-0.952-4.72-1.464-7.08c-0.656-2.984-1.328-5.96-2.136-8.92c-0.672-2.4-1.448-4.848-2.224-7.264
			c-0.904-2.8-1.84-5.6-2.888-8.352c-0.952-2.512-2-5-3.072-7.48c-0.616-1.416-1.096-2.864-1.752-4.272l22.568-11.744
			C428.999,224.845,432.477,276.527,417.267,324.211z"/>
	</g>
</g>
<g>
	<g>
		<path d="M467.539,106.771c-25.946-50.953-71.324-89.307-125.888-106.4c-4.213-1.326-8.703,1.012-10.032,5.224l-12.568,39.848
			l-50.344,159.568c-0.974,3.092,0.015,6.466,2.504,8.544c2.49,2.078,5.987,2.448,8.856,0.936l147.28-77.6l36.8-19.4
			C468.022,115.449,469.534,110.671,467.539,106.771z M336.339,79.411c6.627,0,12,5.373,12,12s-5.373,12-12,12
			c-6.627,0-12-5.373-12-12S329.712,79.411,336.339,79.411z M289.827,191.267l10.704-33.944c0.584,8.807,5.302,16.818,12.72,21.6
			L289.827,191.267z M328.339,167.411c-6.627,0-12-5.373-12-12c0-6.627,5.373-12,12-12c6.627,0,12,5.373,12,12
			C340.339,162.039,334.966,167.411,328.339,167.411z M356.347,156.259c0-0.296,0.088-0.568,0.088-0.864
			c0.07-15.398-12.356-27.936-27.753-28.006c-8.535-0.039-16.618,3.834-21.935,10.51l8.744-27.984
			c10.193,11.67,27.916,12.868,39.587,2.676c11.67-10.193,12.868-27.916,2.676-39.587c-6.899-7.899-17.628-11.291-27.814-8.793
			l1.888-5.96c1.36,0.504,2.744,0.968,4.088,1.512c1.84,0.744,3.672,1.496,5.472,2.304c2.752,1.232,5.44,2.568,8.104,3.952
			c1.664,0.864,3.352,1.704,4.984,2.632c2.832,1.6,5.6,3.344,8.296,5.12c1.328,0.864,2.696,1.664,4,2.576
			c3.845,2.667,7.579,5.512,11.2,8.536l0.304,0.232c3.68,3.112,7.2,6.4,10.568,9.88c1.08,1.104,2.08,2.304,3.136,3.44
			c2.232,2.4,4.432,4.872,6.52,7.44c1.168,1.44,2.264,2.944,3.384,4.432c1.832,2.4,3.616,4.88,5.312,7.416
			c1.088,1.6,2.136,3.304,3.2,4.984c0.8,1.272,1.496,2.6,2.248,3.896L356.347,156.259z M426.883,119.067
			c-0.88-1.544-1.904-2.976-2.832-4.488c-1.16-1.896-2.328-3.792-3.56-5.6c-1.848-2.776-3.808-5.456-5.808-8.104
			c-1.256-1.672-2.48-3.376-3.8-4.992c-2.28-2.816-4.696-5.488-7.136-8.144c-1.192-1.288-2.312-2.64-3.544-3.896
			c-3.704-3.776-7.544-7.4-11.576-10.816l-0.12-0.112c-4.072-3.44-8.328-6.664-12.712-9.712c-1.432-0.992-2.944-1.864-4.4-2.816
			c-3.024-1.976-6.072-3.912-9.224-5.696c-1.808-1.016-3.672-1.928-5.52-2.888c-2.952-1.528-5.92-3.008-8.968-4.376
			c-2.008-0.888-4.04-1.712-6.088-2.528c-1.656-0.664-3.248-1.44-4.928-2.056l7.776-24.696
			c44.633,15.997,81.975,47.597,105.136,88.968L426.883,119.067z"/>
	</g>
</g>
<g>
	<g>
		<path d="M192.339,127.411c-15.464,0-28,12.536-28,28s12.536,28,28,28s28-12.536,28-28S207.803,127.411,192.339,127.411z
			 M192.339,167.411c-6.627,0-12-5.373-12-12c0-6.627,5.373-12,12-12c6.627,0,12,5.373,12,12
			C204.339,162.039,198.966,167.411,192.339,167.411z"/>
	</g>
</g>
<g>
	<g>
		<path d="M112.339,199.411c-15.464,0-28,12.536-28,28c0,15.464,12.536,28,28,28s28-12.536,28-28
			C140.339,211.947,127.803,199.411,112.339,199.411z M112.339,239.411c-6.627,0-12-5.373-12-12c0-6.627,5.373-12,12-12
			s12,5.373,12,12C124.339,234.039,118.966,239.411,112.339,239.411z"/>
	</g>
</g>
<g>
	<g>
		<path d="M192.339,199.411c-15.464,0-28,12.536-28,28c0,15.464,12.536,28,28,28s28-12.536,28-28
			C220.339,211.947,207.803,199.411,192.339,199.411z M192.339,239.411c-6.627,0-12-5.373-12-12c0-6.627,5.373-12,12-12
			c6.627,0,12,5.373,12,12C204.339,234.039,198.966,239.411,192.339,239.411z"/>
	</g>
</g>
<g>
	<g>
		<path d="M272.339,343.411c-15.464,0-28,12.536-28,28c0,15.464,12.536,28,28,28c15.464,0,28-12.536,28-28
			C300.339,355.947,287.803,343.411,272.339,343.411z M272.339,383.411c-6.627,0-12-5.373-12-12c0-6.627,5.373-12,12-12
			c6.627,0,12,5.373,12,12C284.339,378.039,278.966,383.411,272.339,383.411z"/>
	</g>
</g>
<g>
	<g>
		<path d="M328.339,287.411c-15.464,0-28,12.536-28,28c0,15.464,12.536,28,28,28c15.464,0,28-12.536,28-28
			C356.339,299.947,343.803,287.411,328.339,287.411z M328.339,327.411c-6.627,0-12-5.373-12-12c0-6.627,5.373-12,12-12
			c6.627,0,12,5.373,12,12C340.339,322.039,334.966,327.411,328.339,327.411z"/>
	</g>
</g>
<g>
	<g>
		<path d="M352.339,223.411c-15.464,0-28,12.536-28,28c0,15.464,12.536,28,28,28c15.464,0,28-12.536,28-28
			C380.339,235.947,367.803,223.411,352.339,223.411z M352.339,263.411c-6.627,0-12-5.373-12-12c0-6.627,5.373-12,12-12
			c6.627,0,12,5.373,12,12C364.339,258.039,358.966,263.411,352.339,263.411z"/>
	</g>
</g>
<g>
	<g>
		<path d="M120.339,279.411c-15.464,0-28,12.536-28,28c0,15.464,12.536,28,28,28s28-12.536,28-28
			C148.339,291.947,135.803,279.411,120.339,279.411z M120.339,319.411c-6.627,0-12-5.373-12-12c0-6.627,5.373-12,12-12
			s12,5.373,12,12C132.339,314.039,126.966,319.411,120.339,319.411z"/>
	</g>
</g>
<g>
	<g>
		<path d="M248.339,271.411c-15.464,0-28,12.536-28,28c0,15.464,12.536,28,28,28s28-12.536,28-28
			C276.339,283.947,263.803,271.411,248.339,271.411z M248.339,311.411c-6.627,0-12-5.373-12-12c0-6.627,5.373-12,12-12
			c6.627,0,12,5.373,12,12C260.339,306.039,254.966,311.411,248.339,311.411z"/>
	</g>
</g>
<g>
	<g>
		<path d="M176.339,343.411c-15.464,0-28,12.536-28,28c0,15.464,12.536,28,28,28s28-12.536,28-28
			C204.339,355.947,191.803,343.411,176.339,343.411z M176.339,383.411c-6.627,0-12-5.373-12-12c0-6.627,5.373-12,12-12
			c6.627,0,12,5.373,12,12C188.339,378.039,182.966,383.411,176.339,383.411z"/>
	</g>
</g>
<g>
	<g>
		<path d="M132.339,167.411c-4.418,0-8,3.582-8,8s3.582,8,8,8c4.418,0,8,3.582,8,8s3.582,8,8,8s8-3.582,8-8
			C156.339,178.157,145.594,167.411,132.339,167.411z"/>
	</g>
</g>
<g>
	<g>
		<path d="M236.339,335.411c-13.255,0-24,10.745-24,24c0,4.418,3.582,8,8,8s8-3.582,8-8s3.582-8,8-8s8-3.582,8-8
			S240.757,335.411,236.339,335.411z"/>
	</g>
</g>
<g>
	<g>
		<path d="M253.311,121.751c-3.126-3.124-8.192-3.122-11.316,0.004c-3.164,3.025-8.148,3.025-11.312,0
			c-3.124-3.126-8.19-3.128-11.316-0.004s-3.128,8.19-0.004,11.316c9.37,9.376,24.565,9.38,33.941,0.011
			c0.004-0.004,0.007-0.007,0.011-0.011C256.439,129.941,256.437,124.875,253.311,121.751z"/>
	</g>
</g>
<g>
	<g>
		<path d="M308.339,255.411c-13.255,0-24,10.745-24,24c0,4.418,3.582,8,8,8s8-3.582,8-8s3.582-8,8-8s8-3.582,8-8
			S312.757,255.411,308.339,255.411z"/>
	</g>
</g>
<g>
	<g>
		<path d="M186.006,270.438c-0.004-0.004-0.007-0.007-0.011-0.011c-3.126-3.124-8.192-3.122-11.316,0.004
			c-3.124,3.126-3.122,8.192,0.004,11.316c3.123,3.124,3.123,8.188,0,11.312c-3.128,3.12-3.135,8.186-0.014,11.314
			c0.002,0.002,0.004,0.004,0.006,0.006c3.122,3.126,8.188,3.129,11.314,0.006c0.002-0.002,0.004-0.004,0.006-0.006
			C195.371,295.01,195.375,279.814,186.006,270.438z"/>
	</g>
</g>
<g>
	<g>
		<path d="M380.339,103.411c-4.418,0-8,3.582-8,8s-3.582,8-8,8s-8,3.582-8,8c0,4.418,3.582,8,8,8c13.255,0,24-10.745,24-24
			C388.339,106.993,384.757,103.411,380.339,103.411z"/>
	</g>
</g>
<g>
</g>
<g>
</g>
<g>
</g>
<g>
</g>
<g>
</g>
<g>
</g>
<g>
</g>
<g>
</g>
<g>
</g>
<g>
</g>
<g>
</g>
<g>
</g>
<g>
</g>
<g>
</g>
<g>
</g>
</svg>
